<?xml version="1.0" encoding="UTF-8" standalone="no"?>
<!-- Generator: Adobe Illustrator 16.0.0, SVG Export Plug-In . SVG Version: 6.00 Build 0)  -->

<svg
   version="1.1"
   id="Ebene_1"
   x="0px"
   y="0px"
   width="100"
   height="100"
   viewBox="0 0 100 100"
   enable-background="new 0 0 25 25"
   xml:space="preserve"
   sodipodi:docname="add_circle.svg"
   inkscape:version="1.1.1 (3bf5ae0d25, 2021-09-20)"
   xmlns:inkscape="http://www.inkscape.org/namespaces/inkscape"
   xmlns:sodipodi="http://sodipodi.sourceforge.net/DTD/sodipodi-0.dtd"
   xmlns="http://www.w3.org/2000/svg"
   xmlns:svg="http://www.w3.org/2000/svg"><defs
   id="defs7" /><sodipodi:namedview
   id="namedview5"
   pagecolor="#ffffff"
   bordercolor="#666666"
   borderopacity="1.0"
   inkscape:pageshadow="2"
   inkscape:pageopacity="0.0"
   inkscape:pagecheckerboard="0"
   showgrid="false"
   units="px"
   fit-margin-top="0"
   fit-margin-left="0"
   fit-margin-right="0"
   fit-margin-bottom="0"
   inkscape:zoom="5.8831284"
   inkscape:cx="27.621359"
   inkscape:cy="27.961314"
   inkscape:window-width="1920"
   inkscape:window-height="1017"
   inkscape:window-x="1912"
   inkscape:window-y="-8"
   inkscape:window-maximized="1"
   inkscape:current-layer="Ebene_1" />
<path
   fill="#5c9425"
   d="M 49.992,0 C 22.432,0 0,22.432 0,49.992 0,77.572 22.432,100 49.992,100 77.564,100 100,77.572 100,49.992 100,22.432 77.564,0 49.992,0 Z M 69.704,52.856 H 52.852 v 16.852 c 0,1.592 -1.276,2.864 -2.86,2.864 -1.572,0 -2.86,-1.272 -2.86,-2.864 V 52.856 H 30.276 c -1.572,0 -2.864,-1.276 -2.864,-2.86 0,-1.576 1.292,-2.864 2.864,-2.864 H 47.132 V 30.276 c 0,-1.568 1.288,-2.86 2.86,-2.86 1.584,0 2.86,1.292 2.86,2.86 v 16.856 h 16.852 c 1.588,0 2.86,1.288 2.86,2.864 0,1.584 -1.276,2.86 -2.86,2.86 z"
   id="path2"
   color="red"
   style="stroke-width:4" />
</svg>
